<svg xmlns:xlink="http://www.w3.org/1999/xlink" xmlns="http://www.w3.org/2000/svg" width="27" height="24" fill="#969495" preserveAspectRatio="none" viewBox="0 0 27 24" color="#45c3d2"><path fill="#45C3D2" d="M12 24v-2.667h10.667v-9.466c0-2.6-.906-4.806-2.717-6.617s-4.017-2.717-6.617-2.717c-2.6 0-4.805.906-6.616 2.717S4 9.267 4 11.867V20H2.667a2.568 2.568 0 0 1-1.884-.783A2.568 2.568 0 0 1 0 17.333v-2.666c0-.467.117-.906.35-1.317a2.61 2.61 0 0 1 .983-.983l.1-1.767A11.54 11.54 0 0 1 2.75 6.4a12.635 12.635 0 0 1 2.633-3.367A11.698 11.698 0 0 1 9.017.8c1.366-.533 2.805-.8 4.316-.8 1.511 0 2.945.267 4.3.8a12.136 12.136 0 0 1 3.634 2.217 11.967 11.967 0 0 1 2.633 3.35 12.237 12.237 0 0 1 1.333 4.2l.1 1.733c.423.2.75.5.984.9.233.4.35.822.35 1.267v3.066c0 .445-.117.867-.35 1.267-.234.4-.561.7-.984.9v1.633c0 .734-.26 1.361-.783 1.884a2.568 2.568 0 0 1-1.883.783zm-2.667-9.333a1.29 1.29 0 0 1-.95-.384 1.29 1.29 0 0 1-.383-.95c0-.377.128-.694.383-.95a1.29 1.29 0 0 1 .95-.383c.378 0 .695.128.95.383.256.256.384.573.384.95 0 .378-.128.695-.384.95a1.29 1.29 0 0 1-.95.384m8 0a1.29 1.29 0 0 1-.95-.384 1.29 1.29 0 0 1-.383-.95c0-.377.128-.694.383-.95a1.29 1.29 0 0 1 .95-.383c.378 0 .695.128.95.383.256.256.384.573.384.95 0 .378-.128.695-.384.95a1.29 1.29 0 0 1-.95.384M5.367 12.6c-.156-2.356.555-4.378 2.133-6.067C9.078 4.844 11.044 4 13.4 4c1.978 0 3.717.628 5.217 1.883 1.5 1.256 2.405 2.861 2.716 4.817a10.527 10.527 0 0 1-5.583-1.633C14.05 8 12.744 6.556 11.833 4.733a10.635 10.635 0 0 1-2.25 4.75A10.658 10.658 0 0 1 5.367 12.6"></path></svg>